<mxfile host="app.diagrams.net" modified="2021-04-17T06:28:43.294Z" agent="5.0 (Windows NT 10.0; Win64; x64) AppleWebKit/537.36 (KHTML, like Gecko) Chrome/89.0.4389.128 Safari/537.36" etag="dC_9PWXzT_u74MuBAnK6" version="14.6.0" type="github">
  <diagram id="QyQZ1uScPsLRSRjPZb-_" name="Page-1">
    <mxGraphModel dx="2222" dy="762" grid="0" gridSize="10" guides="1" tooltips="1" connect="1" arrows="1" fold="1" page="0" pageScale="1" pageWidth="827" pageHeight="1169" math="0" shadow="0">
      <root>
        <mxCell id="0" />
        <mxCell id="1" parent="0" />
        <mxCell id="dyfO0-VfkGhR7HaIdULB-3" value="" style="edgeStyle=orthogonalEdgeStyle;rounded=0;orthogonalLoop=1;jettySize=auto;html=1;" parent="1" source="C5So8QU_zJN5Bs7uF87_-2" target="dyfO0-VfkGhR7HaIdULB-1" edge="1">
          <mxGeometry relative="1" as="geometry" />
        </mxCell>
        <mxCell id="C5So8QU_zJN5Bs7uF87_-2" value="等待数据帧到达" style="rounded=0;whiteSpace=wrap;html=1;strokeWidth=1;" parent="1" vertex="1">
          <mxGeometry x="333.5" y="132" width="127" height="42" as="geometry" />
        </mxCell>
        <mxCell id="C5So8QU_zJN5Bs7uF87_-30" value="" style="edgeStyle=orthogonalEdgeStyle;rounded=0;orthogonalLoop=1;jettySize=auto;html=1;strokeWidth=1;" parent="1" source="C5So8QU_zJN5Bs7uF87_-4" target="C5So8QU_zJN5Bs7uF87_-29" edge="1">
          <mxGeometry relative="1" as="geometry" />
        </mxCell>
        <mxCell id="C5So8QU_zJN5Bs7uF87_-4" value="根据流处理器和外部优先级匹配所有符合条件的流过滤器" style="rounded=0;whiteSpace=wrap;html=1;strokeWidth=1;" parent="1" vertex="1">
          <mxGeometry x="310" y="198" width="180" height="42" as="geometry" />
        </mxCell>
        <mxCell id="C5So8QU_zJN5Bs7uF87_-34" value="" style="edgeStyle=orthogonalEdgeStyle;rounded=0;orthogonalLoop=1;jettySize=auto;html=1;strokeWidth=1;" parent="1" source="C5So8QU_zJN5Bs7uF87_-25" target="C5So8QU_zJN5Bs7uF87_-27" edge="1">
          <mxGeometry relative="1" as="geometry" />
        </mxCell>
        <mxCell id="C5So8QU_zJN5Bs7uF87_-25" value="获取流过滤器ID最小的流过滤器实例" style="whiteSpace=wrap;html=1;strokeWidth=1;" parent="1" vertex="1">
          <mxGeometry x="310" y="370" width="180" height="42" as="geometry" />
        </mxCell>
        <mxCell id="C5So8QU_zJN5Bs7uF87_-36" value="" style="edgeStyle=orthogonalEdgeStyle;rounded=0;orthogonalLoop=1;jettySize=auto;html=1;strokeWidth=1;" parent="1" source="C5So8QU_zJN5Bs7uF87_-27" target="C5So8QU_zJN5Bs7uF87_-35" edge="1">
          <mxGeometry relative="1" as="geometry" />
        </mxCell>
        <mxCell id="C5So8QU_zJN5Bs7uF87_-27" value="&lt;span class=&quot;fontstyle0&quot;&gt;MatchingFramesCount计数器加1&lt;/span&gt;" style="whiteSpace=wrap;html=1;strokeWidth=1;" parent="1" vertex="1">
          <mxGeometry x="310" y="449" width="180" height="30" as="geometry" />
        </mxCell>
        <mxCell id="C5So8QU_zJN5Bs7uF87_-31" value="是" style="edgeStyle=orthogonalEdgeStyle;rounded=0;orthogonalLoop=1;jettySize=auto;html=1;strokeWidth=1;" parent="1" source="C5So8QU_zJN5Bs7uF87_-29" target="C5So8QU_zJN5Bs7uF87_-25" edge="1">
          <mxGeometry relative="1" as="geometry" />
        </mxCell>
        <mxCell id="C5So8QU_zJN5Bs7uF87_-33" value="否" style="edgeStyle=orthogonalEdgeStyle;rounded=0;orthogonalLoop=1;jettySize=auto;html=1;strokeWidth=1;" parent="1" source="C5So8QU_zJN5Bs7uF87_-29" target="C5So8QU_zJN5Bs7uF87_-32" edge="1">
          <mxGeometry relative="1" as="geometry" />
        </mxCell>
        <mxCell id="C5So8QU_zJN5Bs7uF87_-29" value="是否有符合条件的&lt;br&gt;流过滤器" style="rhombus;whiteSpace=wrap;html=1;strokeWidth=1;" parent="1" vertex="1">
          <mxGeometry x="310" y="258" width="180" height="60" as="geometry" />
        </mxCell>
        <mxCell id="dyfO0-VfkGhR7HaIdULB-13" value="" style="edgeStyle=orthogonalEdgeStyle;rounded=0;orthogonalLoop=1;jettySize=auto;html=1;entryX=0.5;entryY=0;entryDx=0;entryDy=0;" parent="1" source="C5So8QU_zJN5Bs7uF87_-32" target="dyfO0-VfkGhR7HaIdULB-11" edge="1">
          <mxGeometry relative="1" as="geometry" />
        </mxCell>
        <mxCell id="C5So8QU_zJN5Bs7uF87_-32" value="丢弃数据帧" style="whiteSpace=wrap;html=1;strokeWidth=1;" parent="1" vertex="1">
          <mxGeometry x="526" y="274.25" width="150" height="27.5" as="geometry" />
        </mxCell>
        <mxCell id="dyfO0-VfkGhR7HaIdULB-7" value="" style="edgeStyle=orthogonalEdgeStyle;rounded=0;orthogonalLoop=1;jettySize=auto;html=1;" parent="1" source="C5So8QU_zJN5Bs7uF87_-35" target="dyfO0-VfkGhR7HaIdULB-6" edge="1">
          <mxGeometry relative="1" as="geometry" />
        </mxCell>
        <mxCell id="C5So8QU_zJN5Bs7uF87_-35" value="为数据帧指定后续通过的流门控和整形器" style="whiteSpace=wrap;html=1;strokeWidth=1;" parent="1" vertex="1">
          <mxGeometry x="516" y="442.5" width="170" height="43" as="geometry" />
        </mxCell>
        <mxCell id="dyfO0-VfkGhR7HaIdULB-4" value="" style="edgeStyle=orthogonalEdgeStyle;rounded=0;orthogonalLoop=1;jettySize=auto;html=1;" parent="1" source="dyfO0-VfkGhR7HaIdULB-1" target="dyfO0-VfkGhR7HaIdULB-2" edge="1">
          <mxGeometry relative="1" as="geometry" />
        </mxCell>
        <mxCell id="dyfO0-VfkGhR7HaIdULB-1" value="&lt;font style=&quot;font-size: 12px&quot;&gt;获取数据帧的&lt;span&gt;输入端口、源&lt;/span&gt;&lt;span lang=&quot;EN-US&quot; style=&quot;font-family: &amp;#34;times new roman&amp;#34; , serif&quot;&gt;MAC&lt;/span&gt;&lt;span&gt;地址、目的&lt;/span&gt;&lt;span lang=&quot;EN-US&quot; style=&quot;font-family: &amp;#34;times new roman&amp;#34; , serif&quot;&gt;MAC&lt;/span&gt;&lt;span&gt;地址、&lt;/span&gt;&lt;span lang=&quot;EN-US&quot; style=&quot;font-family: &amp;#34;times new roman&amp;#34; , serif&quot;&gt;VLAN ID&lt;/span&gt;&lt;span&gt;、外部优先级字段&lt;/span&gt;&lt;/font&gt;" style="rounded=0;whiteSpace=wrap;html=1;strokeWidth=1;" parent="1" vertex="1">
          <mxGeometry x="511" y="128" width="180" height="50" as="geometry" />
        </mxCell>
        <mxCell id="dyfO0-VfkGhR7HaIdULB-5" value="" style="edgeStyle=orthogonalEdgeStyle;rounded=0;orthogonalLoop=1;jettySize=auto;html=1;" parent="1" source="dyfO0-VfkGhR7HaIdULB-2" target="C5So8QU_zJN5Bs7uF87_-4" edge="1">
          <mxGeometry relative="1" as="geometry" />
        </mxCell>
        <mxCell id="dyfO0-VfkGhR7HaIdULB-2" value="&lt;font style=&quot;font-size: 12px&quot;&gt;确定&lt;span&gt;流识别功能子参数&lt;/span&gt;&lt;span&gt;流处理器字段的值&lt;/span&gt;&lt;/font&gt;" style="rounded=0;whiteSpace=wrap;html=1;strokeWidth=1;" parent="1" vertex="1">
          <mxGeometry x="511" y="198" width="180" height="42" as="geometry" />
        </mxCell>
        <mxCell id="dyfO0-VfkGhR7HaIdULB-14" value="" style="edgeStyle=orthogonalEdgeStyle;rounded=0;orthogonalLoop=1;jettySize=auto;html=1;entryX=0.5;entryY=1;entryDx=0;entryDy=0;" parent="1" source="dyfO0-VfkGhR7HaIdULB-6" target="dyfO0-VfkGhR7HaIdULB-11" edge="1">
          <mxGeometry relative="1" as="geometry" />
        </mxCell>
        <mxCell id="dyfO0-VfkGhR7HaIdULB-6" value="将数据帧传入服务数据单元过滤器" style="whiteSpace=wrap;html=1;strokeWidth=1;" parent="1" vertex="1">
          <mxGeometry x="516" y="378" width="170" height="39" as="geometry" />
        </mxCell>
        <mxCell id="dyfO0-VfkGhR7HaIdULB-9" value="" style="edgeStyle=orthogonalEdgeStyle;rounded=0;orthogonalLoop=1;jettySize=auto;html=1;entryX=0.5;entryY=0;entryDx=0;entryDy=0;" parent="1" source="dyfO0-VfkGhR7HaIdULB-8" target="C5So8QU_zJN5Bs7uF87_-2" edge="1">
          <mxGeometry relative="1" as="geometry" />
        </mxCell>
        <mxCell id="dyfO0-VfkGhR7HaIdULB-8" value="开始" style="rounded=0;whiteSpace=wrap;html=1;" parent="1" vertex="1">
          <mxGeometry x="335" y="71" width="124" height="37" as="geometry" />
        </mxCell>
        <mxCell id="dyfO0-VfkGhR7HaIdULB-11" value="结束" style="whiteSpace=wrap;html=1;strokeWidth=1;" parent="1" vertex="1">
          <mxGeometry x="526" y="326" width="150" height="27.5" as="geometry" />
        </mxCell>
        <mxCell id="dyfO0-VfkGhR7HaIdULB-37" value="" style="edgeStyle=orthogonalEdgeStyle;rounded=0;orthogonalLoop=1;jettySize=auto;html=1;fontSize=18;entryX=0.5;entryY=0;entryDx=0;entryDy=0;" parent="1" source="dyfO0-VfkGhR7HaIdULB-15" target="dyfO0-VfkGhR7HaIdULB-18" edge="1">
          <mxGeometry relative="1" as="geometry" />
        </mxCell>
        <mxCell id="dyfO0-VfkGhR7HaIdULB-15" value="&lt;font style=&quot;font-size: 18px;&quot;&gt;开始&lt;/font&gt;" style="strokeWidth=1;html=1;shape=mxgraph.flowchart.terminator;whiteSpace=wrap;fontSize=18;" parent="1" vertex="1">
          <mxGeometry x="-491.5" y="2" width="77" height="44" as="geometry" />
        </mxCell>
        <mxCell id="dyfO0-VfkGhR7HaIdULB-38" value="" style="edgeStyle=orthogonalEdgeStyle;rounded=0;orthogonalLoop=1;jettySize=auto;html=1;fontSize=18;" parent="1" source="dyfO0-VfkGhR7HaIdULB-18" target="dyfO0-VfkGhR7HaIdULB-25" edge="1">
          <mxGeometry relative="1" as="geometry" />
        </mxCell>
        <mxCell id="dyfO0-VfkGhR7HaIdULB-18" value="&lt;font style=&quot;font-size: 18px;&quot;&gt;等待数据帧到达&lt;/font&gt;" style="rounded=0;whiteSpace=wrap;html=1;strokeWidth=1;fontSize=18;" parent="1" vertex="1">
          <mxGeometry x="-596" y="69.75" width="287" height="39" as="geometry" />
        </mxCell>
        <mxCell id="dyfO0-VfkGhR7HaIdULB-41" value="" style="edgeStyle=orthogonalEdgeStyle;rounded=0;orthogonalLoop=1;jettySize=auto;html=1;fontSize=18;" parent="1" source="dyfO0-VfkGhR7HaIdULB-19" target="dyfO0-VfkGhR7HaIdULB-20" edge="1">
          <mxGeometry relative="1" as="geometry" />
        </mxCell>
        <mxCell id="dyfO0-VfkGhR7HaIdULB-19" value="&lt;font style=&quot;font-size: 18px;&quot;&gt;根据流处理器和外部优先级匹配所有符合条件的流过滤器&lt;/font&gt;" style="rounded=0;whiteSpace=wrap;html=1;strokeWidth=1;fontSize=18;" parent="1" vertex="1">
          <mxGeometry x="-597" y="370" width="288" height="69" as="geometry" />
        </mxCell>
        <mxCell id="dyfO0-VfkGhR7HaIdULB-42" value="N" style="edgeStyle=orthogonalEdgeStyle;rounded=0;orthogonalLoop=1;jettySize=auto;html=1;fontSize=18;" parent="1" source="dyfO0-VfkGhR7HaIdULB-20" target="dyfO0-VfkGhR7HaIdULB-28" edge="1">
          <mxGeometry relative="1" as="geometry" />
        </mxCell>
        <mxCell id="dyfO0-VfkGhR7HaIdULB-45" value="Y" style="edgeStyle=orthogonalEdgeStyle;rounded=0;orthogonalLoop=1;jettySize=auto;html=1;fontSize=18;entryX=0;entryY=0.5;entryDx=0;entryDy=0;" parent="1" source="dyfO0-VfkGhR7HaIdULB-20" target="dyfO0-VfkGhR7HaIdULB-22" edge="1">
          <mxGeometry x="-0.8949" relative="1" as="geometry">
            <mxPoint as="offset" />
            <Array as="points">
              <mxPoint x="-283" y="503" />
              <mxPoint x="-283" y="104" />
            </Array>
          </mxGeometry>
        </mxCell>
        <mxCell id="dyfO0-VfkGhR7HaIdULB-20" value="&lt;font style=&quot;font-size: 18px;&quot;&gt;有符合条件的&lt;br style=&quot;font-size: 18px;&quot;&gt;流过滤器&lt;/font&gt;" style="rhombus;whiteSpace=wrap;html=1;strokeWidth=1;fontSize=18;" parent="1" vertex="1">
          <mxGeometry x="-573.25" y="467" width="240.5" height="72.25" as="geometry" />
        </mxCell>
        <mxCell id="dyfO0-VfkGhR7HaIdULB-46" value="" style="edgeStyle=orthogonalEdgeStyle;rounded=0;orthogonalLoop=1;jettySize=auto;html=1;fontSize=18;" parent="1" source="dyfO0-VfkGhR7HaIdULB-22" target="dyfO0-VfkGhR7HaIdULB-24" edge="1">
          <mxGeometry relative="1" as="geometry" />
        </mxCell>
        <mxCell id="dyfO0-VfkGhR7HaIdULB-22" value="获取流过滤器ID最小的流过滤器实例" style="rounded=0;whiteSpace=wrap;html=1;strokeWidth=1;fontSize=18;" parent="1" vertex="1">
          <mxGeometry x="-252" y="69.75" width="288" height="69" as="geometry" />
        </mxCell>
        <mxCell id="dyfO0-VfkGhR7HaIdULB-47" value="" style="edgeStyle=orthogonalEdgeStyle;rounded=0;orthogonalLoop=1;jettySize=auto;html=1;fontSize=18;" parent="1" source="dyfO0-VfkGhR7HaIdULB-24" target="dyfO0-VfkGhR7HaIdULB-32" edge="1">
          <mxGeometry relative="1" as="geometry" />
        </mxCell>
        <mxCell id="dyfO0-VfkGhR7HaIdULB-24" value="&lt;font style=&quot;font-size: 18px;&quot;&gt;MatchingFramesCount计数器加1&lt;/font&gt;" style="rounded=0;whiteSpace=wrap;html=1;strokeWidth=1;fontSize=18;" parent="1" vertex="1">
          <mxGeometry x="-252" y="174" width="288" height="53" as="geometry" />
        </mxCell>
        <mxCell id="dyfO0-VfkGhR7HaIdULB-39" value="" style="edgeStyle=orthogonalEdgeStyle;rounded=0;orthogonalLoop=1;jettySize=auto;html=1;fontSize=18;" parent="1" source="dyfO0-VfkGhR7HaIdULB-25" target="dyfO0-VfkGhR7HaIdULB-27" edge="1">
          <mxGeometry relative="1" as="geometry" />
        </mxCell>
        <mxCell id="dyfO0-VfkGhR7HaIdULB-25" value="&lt;font style=&quot;font-size: 18px;&quot;&gt;获取数据帧的输入端口、源&lt;span lang=&quot;EN-US&quot; style=&quot;font-family: &amp;quot;times new roman&amp;quot;, serif; font-size: 18px;&quot;&gt;MAC&lt;/span&gt;地址、目的&lt;span lang=&quot;EN-US&quot; style=&quot;font-family: &amp;quot;times new roman&amp;quot;, serif; font-size: 18px;&quot;&gt;MAC&lt;/span&gt;地址、&lt;span lang=&quot;EN-US&quot; style=&quot;font-family: &amp;quot;times new roman&amp;quot;, serif; font-size: 18px;&quot;&gt;VLAN ID&lt;/span&gt;、外部优先级字段&lt;/font&gt;" style="rounded=0;whiteSpace=wrap;html=1;strokeWidth=1;fontSize=18;" parent="1" vertex="1">
          <mxGeometry x="-596.5" y="150" width="288" height="69" as="geometry" />
        </mxCell>
        <mxCell id="dyfO0-VfkGhR7HaIdULB-40" value="" style="edgeStyle=orthogonalEdgeStyle;rounded=0;orthogonalLoop=1;jettySize=auto;html=1;fontSize=18;" parent="1" source="dyfO0-VfkGhR7HaIdULB-27" target="dyfO0-VfkGhR7HaIdULB-19" edge="1">
          <mxGeometry relative="1" as="geometry" />
        </mxCell>
        <mxCell id="dyfO0-VfkGhR7HaIdULB-27" value="&lt;font style=&quot;font-size: 18px;&quot;&gt;确定流识别功能子参数流处理器字段的值&lt;/font&gt;" style="rounded=0;whiteSpace=wrap;html=1;strokeWidth=1;fontSize=18;" parent="1" vertex="1">
          <mxGeometry x="-597" y="257" width="288" height="69" as="geometry" />
        </mxCell>
        <mxCell id="oKchrxeiVhcm7OmLzuMr-3" value="" style="edgeStyle=orthogonalEdgeStyle;rounded=0;orthogonalLoop=1;jettySize=auto;html=1;" edge="1" parent="1" source="dyfO0-VfkGhR7HaIdULB-28" target="oKchrxeiVhcm7OmLzuMr-1">
          <mxGeometry relative="1" as="geometry" />
        </mxCell>
        <mxCell id="dyfO0-VfkGhR7HaIdULB-28" value="丢弃数据帧" style="rounded=0;whiteSpace=wrap;html=1;strokeWidth=1;fontSize=18;" parent="1" vertex="1">
          <mxGeometry x="-597" y="576" width="288" height="48" as="geometry" />
        </mxCell>
        <mxCell id="oKchrxeiVhcm7OmLzuMr-7" value="" style="edgeStyle=orthogonalEdgeStyle;rounded=0;orthogonalLoop=1;jettySize=auto;html=1;" edge="1" parent="1" source="dyfO0-VfkGhR7HaIdULB-32" target="oKchrxeiVhcm7OmLzuMr-6">
          <mxGeometry relative="1" as="geometry" />
        </mxCell>
        <mxCell id="dyfO0-VfkGhR7HaIdULB-32" value="&lt;span style=&quot;font-size: 18px;&quot;&gt;为数据帧指定后续通过的流门控和整形器&lt;/span&gt;" style="rounded=0;whiteSpace=wrap;html=1;strokeWidth=1;fontSize=18;" parent="1" vertex="1">
          <mxGeometry x="-252" y="264" width="288" height="69" as="geometry" />
        </mxCell>
        <mxCell id="oKchrxeiVhcm7OmLzuMr-5" value="" style="edgeStyle=orthogonalEdgeStyle;rounded=0;orthogonalLoop=1;jettySize=auto;html=1;" edge="1" parent="1" source="dyfO0-VfkGhR7HaIdULB-33" target="oKchrxeiVhcm7OmLzuMr-1">
          <mxGeometry relative="1" as="geometry" />
        </mxCell>
        <mxCell id="dyfO0-VfkGhR7HaIdULB-33" value="&lt;span style=&quot;font-size: 18px;&quot;&gt;将数据帧传入服务数据单元过滤器&lt;/span&gt;" style="rounded=0;whiteSpace=wrap;html=1;strokeWidth=1;fontSize=18;" parent="1" vertex="1">
          <mxGeometry x="-252" y="473" width="288" height="69" as="geometry" />
        </mxCell>
        <mxCell id="oKchrxeiVhcm7OmLzuMr-1" value="&lt;font style=&quot;font-size: 18px&quot;&gt;等待下一数据帧到达&lt;/font&gt;" style="rounded=0;whiteSpace=wrap;html=1;strokeWidth=1;fontSize=18;" vertex="1" parent="1">
          <mxGeometry x="-251" y="576" width="287" height="48" as="geometry" />
        </mxCell>
        <mxCell id="oKchrxeiVhcm7OmLzuMr-8" value="" style="edgeStyle=orthogonalEdgeStyle;rounded=0;orthogonalLoop=1;jettySize=auto;html=1;" edge="1" parent="1" source="oKchrxeiVhcm7OmLzuMr-6" target="dyfO0-VfkGhR7HaIdULB-33">
          <mxGeometry relative="1" as="geometry" />
        </mxCell>
        <mxCell id="oKchrxeiVhcm7OmLzuMr-6" value="&lt;span style=&quot;font-size: 18px&quot;&gt;将&lt;/span&gt;流门控和整形器ID写入流状态信息表" style="rounded=0;whiteSpace=wrap;html=1;strokeWidth=1;fontSize=18;" vertex="1" parent="1">
          <mxGeometry x="-252" y="370" width="288" height="69" as="geometry" />
        </mxCell>
      </root>
    </mxGraphModel>
  </diagram>
</mxfile>
